<svg width="36" height="36" viewBox="0 0 36 36" fill="none" xmlns="http://www.w3.org/2000/svg">
<path d="M24.4011 9.098H21.1311V7.157C21.1311 5.66357 20.5378 4.2313 19.4818 3.17528C18.4258 2.11927 16.9935 1.526 15.5001 1.526C14.0067 1.526 12.5744 2.11927 11.5184 3.17528C10.4624 4.2313 9.8691 5.66357 9.8691 7.157V9.098H6.5991L5.4231 29.474H25.5771L24.4011 9.098ZM12.0171 7.157C12.0171 6.23325 12.3841 5.34734 13.0372 4.69415C13.6904 4.04096 14.5763 3.674 15.5001 3.674C16.4238 3.674 17.3098 4.04096 17.9629 4.69415C18.6161 5.34734 18.9831 6.23325 18.9831 7.157V9.098H12.0171V7.157Z" fill="#316C9F"/>
<rect x="15.5" y="15.5" width="20" height="20" rx="10" fill="#FFAC00"/>
<path d="M21.7044 24.25C21.7044 22.6447 22.0124 21.38 22.6284 20.456C23.2537 19.532 24.2571 19.07 25.6384 19.07C27.0197 19.07 28.0184 19.532 28.6344 20.456C29.2597 21.38 29.5724 22.6447 29.5724 24.25C29.5724 25.874 29.2597 27.148 28.6344 28.072C28.0184 28.996 27.0197 29.458 25.6384 29.458C24.2571 29.458 23.2537 28.996 22.6284 28.072C22.0124 27.148 21.7044 25.874 21.7044 24.25ZM27.2204 24.25C27.2204 23.3073 27.1177 22.584 26.9124 22.08C26.7071 21.5667 26.2824 21.31 25.6384 21.31C24.9944 21.31 24.5697 21.5667 24.3644 22.08C24.1591 22.584 24.0564 23.3073 24.0564 24.25C24.0564 24.8847 24.0937 25.412 24.1684 25.832C24.2431 26.2427 24.3924 26.5787 24.6164 26.84C24.8497 27.092 25.1904 27.218 25.6384 27.218C26.0864 27.218 26.4224 27.092 26.6464 26.84C26.8797 26.5787 27.0337 26.2427 27.1084 25.832C27.1831 25.412 27.2204 24.8847 27.2204 24.25Z" fill="black"/>
<path d="M21.0744 30.9H30.2024V31.6H21.0744V30.9Z" fill="black"/>
</svg>
