<svg width="16" height="16" viewBox="0 0 16 16" fill="none" xmlns="http://www.w3.org/2000/svg">
<path d="M7.98755 4.28711C10.0793 4.28711 11.8059 6.01367 11.8059 8.10547C11.8059 10.2305 10.0793 11.9238 7.98755 11.9238C5.86255 11.9238 4.16919 10.2305 4.16919 8.10547C4.16919 6.01367 5.86255 4.28711 7.98755 4.28711ZM7.98755 10.5957C9.34888 10.5957 10.4446 9.5 10.4446 8.10547C10.4446 6.74414 9.34888 5.64844 7.98755 5.64844C6.59302 5.64844 5.49731 6.74414 5.49731 8.10547C5.49731 9.5 6.62622 10.5957 7.98755 10.5957ZM12.8352 4.1543C12.8352 4.65234 12.4368 5.05078 11.9387 5.05078C11.4407 5.05078 11.0422 4.65234 11.0422 4.1543C11.0422 3.65625 11.4407 3.25781 11.9387 3.25781C12.4368 3.25781 12.8352 3.65625 12.8352 4.1543ZM15.3586 5.05078C15.425 6.2793 15.425 9.96484 15.3586 11.1934C15.2922 12.3887 15.0266 13.418 14.1633 14.3145C13.3 15.1777 12.2375 15.4434 11.0422 15.5098C9.81372 15.5762 6.12817 15.5762 4.89966 15.5098C3.70435 15.4434 2.67505 15.1777 1.77856 14.3145C0.915283 13.418 0.649658 12.3887 0.583252 11.1934C0.516846 9.96484 0.516846 6.2793 0.583252 5.05078C0.649658 3.85547 0.915283 2.79297 1.77856 1.92969C2.67505 1.06641 3.70435 0.800781 4.89966 0.734375C6.12817 0.667969 9.81372 0.667969 11.0422 0.734375C12.2375 0.800781 13.3 1.06641 14.1633 1.92969C15.0266 2.79297 15.2922 3.85547 15.3586 5.05078ZM13.7649 12.4883C14.1633 11.5254 14.0637 9.20117 14.0637 8.10547C14.0637 7.04297 14.1633 4.71875 13.7649 3.72266C13.4993 3.0918 13.0012 2.56055 12.3704 2.32812C11.3743 1.92969 9.05005 2.0293 7.98755 2.0293C6.89185 2.0293 4.56763 1.92969 3.60474 2.32812C2.94067 2.59375 2.44263 3.0918 2.177 3.72266C1.77856 4.71875 1.87817 7.04297 1.87817 8.10547C1.87817 9.20117 1.77856 11.5254 2.177 12.4883C2.44263 13.1523 2.94067 13.6504 3.60474 13.916C4.56763 14.3145 6.89185 14.2148 7.98755 14.2148C9.05005 14.2148 11.3743 14.3145 12.3704 13.916C13.0012 13.6504 13.5325 13.1523 13.7649 12.4883Z" fill="#212529"/>
</svg>
