<svg width="12" height="13" viewBox="0 0 12 13" fill="none" xmlns="http://www.w3.org/2000/svg">
<path d="M10.355 5.64001C10.9644 5.64001 11.48 6.15564 11.48 6.76501V11.265C11.48 11.8978 10.9644 12.39 10.355 12.39H2.10498C1.47217 12.39 0.97998 11.8978 0.97998 11.265V6.76501C0.97998 6.15564 1.47217 5.64001 2.10498 5.64001H2.66748V3.95251C2.66748 2.0072 4.26123 0.390015 6.22998 0.390015C8.17529 0.390015 9.79248 2.0072 9.79248 3.95251V5.64001H10.355ZM7.91748 5.64001V3.95251C7.91748 3.03845 7.14404 2.26501 6.22998 2.26501C5.29248 2.26501 4.54248 3.03845 4.54248 3.95251V5.64001H7.91748Z" fill="black"/>
</svg>
