<svg width="15" height="13" viewBox="0 0 15 13" fill="none" xmlns="http://www.w3.org/2000/svg">
<path d="M14.2919 5.04098C14.2919 4.84642 14.1416 4.72261 13.8409 4.66955L9.72866 4.05935L7.89805 0.345061C7.79193 0.132816 7.65927 0.0266943 7.50009 0.0266943C7.34091 0.0266943 7.20825 0.132816 7.10213 0.345061L5.27152 4.05935L1.15927 4.66955C0.858592 4.72261 0.708252 4.84642 0.708252 5.04098C0.708252 5.16479 0.779 5.29744 0.920497 5.43894L3.89193 8.33078L3.1756 12.4165C3.1756 12.4872 3.1756 12.5403 3.1756 12.5757C3.1756 12.6818 3.20213 12.7747 3.25519 12.8542C3.30825 12.9338 3.39669 12.9736 3.5205 12.9736C3.60893 12.9736 3.71505 12.9383 3.83886 12.8675L7.50009 10.9573L11.1613 12.8675C11.2851 12.9383 11.3912 12.9736 11.4797 12.9736C11.7096 12.9736 11.8246 12.841 11.8246 12.5757C11.8246 12.5049 11.8246 12.4519 11.8246 12.4165L11.1083 8.33078L14.0797 5.43894C14.2212 5.29744 14.2919 5.16479 14.2919 5.04098ZM9.99397 7.95935L10.5776 11.3818L7.50009 9.76343L4.42254 11.3818L5.00621 7.95935L2.51233 5.54506L5.96131 5.01445L7.50009 1.91037L9.03886 5.01445L12.4878 5.54506L9.99397 7.95935Z" fill="#108BA9"/>
</svg>
